Coordinates
version=1
nRows=24
nColumns=22
inDegrees=yes

Units are S.I. units (second, meters, Newtons, ...)
If the header above contains a line with 'inDegrees', this indicates whether rotational values are in degrees (yes) or radians (no).

endheader
time	pelvis_tilt	pelvis_list	pelvis_rotation	pelvis_tx	pelvis_ty	pelvis_tz	hip_flexion_r	hip_adduction_r	hip_rotation_r	knee_angle_r	ankle_angle_r	subtalar_angle_r	hip_flexion_l	hip_adduction_l	hip_rotation_l	knee_angle_l	ankle_angle_l	subtalar_angle_l	lumbar_extension	lumbar_bending	lumbar_rotation
      0.01000000	     -8.66128830	     -1.89030350	     -3.54827707	     -0.99117175	      0.88566097	     -0.58652627	      9.64169219	     -0.40339321	      4.62645150	     -7.53887906	     10.84060909	     -1.52907190	      7.22723562	     -4.89614670	    -13.23017201	     -9.53714556	     13.69592402	      5.97973428	      5.10117716	      1.09742406	     12.21272097
      0.02000000	     -8.61726487	     -1.87717912	     -3.58614094	     -0.99127629	      0.88571354	     -0.58653231	      9.64364499	     -0.41467523	      4.62142884	     -7.60457690	     10.85835135	     -1.53870969	      7.19129405	     -4.88243600	    -13.29164126	     -9.55850649	     13.70100712	      5.98424890	      5.01863808	      1.08179854	     12.25747791
      0.03000000	     -8.56735182	     -1.87357840	     -3.63396221	     -0.99139286	      0.88577859	     -0.58653159	      9.63397815	     -0.41495934	      4.64430963	     -7.65761136	     10.86965739	     -1.54270799	      7.14662288	     -4.87973588	    -13.35694223	     -9.57830338	     13.70902529	      5.98682648	      4.92361434	      1.07712732	     12.31378795
      0.04000000	     -8.51874283	     -1.86655460	     -3.68753587	     -0.99151001	      0.88584431	     -0.58653442	      9.62345073	     -0.41866026	      4.67313697	     -7.70398578	     10.87661687	     -1.54401605	      7.09911846	     -4.87158488	    -13.42997912	     -9.59054287	     13.71418135	      5.98852234	      4.82866245	      1.06827338	     12.37298632
      0.05000000	     -8.48257434	     -1.86000820	     -3.73805844	     -0.99163857	      0.88589765	     -0.58654087	      9.62525718	     -0.42172709	      4.69952094	     -7.74805681	     10.87569239	     -1.54288797	      7.06387378	     -4.86339550	    -13.49547962	     -9.59743182	     13.71230129	      5.98869779	      4.74573808	      1.05777091	     12.42826005
      0.06000000	     -8.46749551	     -1.85846631	     -3.77407946	     -0.99179882	      0.88592784	     -0.58655713	      9.64601460	     -0.41990515	      4.70458699	     -7.78325119	     10.85855884	     -1.54133604	      7.05851247	     -4.86127393	    -13.52498190	     -9.60885622	     13.70364903	      5.98811873	      4.68436137	      1.04986137	     12.46382984
      0.07000000	     -8.46456013	     -1.86005528	     -3.82468817	     -0.99194248	      0.88594618	     -0.58653526	      9.68137692	     -0.41060966	      4.69331475	     -7.82134748	     10.84379283	     -1.53798810	      7.05172271	     -4.86534514	    -13.59504479	     -9.59975881	     13.69664632	      5.98616301	      4.64060184	      1.04662070	     12.50195016
      0.08000000	     -8.47741459	     -1.86672692	     -3.87055201	     -0.99211367	      0.88594639	     -0.58649625	      9.72769768	     -0.39479664	      4.67661976	     -7.84717400	     10.82739377	     -1.53255625	      7.06486540	     -4.87746537	    -13.64671356	     -9.59218084	     13.68681402	      5.98675494	      4.61292936	      1.04483643	     12.53518062
      0.09000000	     -8.53292063	     -1.88415522	     -3.91832984	     -0.99235184	      0.88588362	     -0.58642541	      9.83250359	     -0.36109612	      4.67046864	     -7.89253920	     10.80908263	     -1.51220667	      7.14092864	     -4.91150782	    -13.70081982	     -9.61259454	     13.68648334	      6.00051478	      4.62974638	      1.05528753	     12.56498880
      0.10000000	     -8.59229573	     -1.90957274	     -3.93065681	     -0.99256026	      0.88582219	     -0.58641144	      9.92168790	     -0.32704292	      4.59853675	     -7.91056772	     10.76908011	     -1.49666778	      7.21794931	     -4.94732585	    -13.71423472	     -9.61725955	     13.68037231	      6.01646234	      4.65617136	      1.07188217	     12.55159685
      0.11000000	     -8.66432008	     -1.94164147	     -3.92503768	     -0.99276559	      0.88573813	     -0.58644109	     10.01242296	     -0.29053613	      4.53116980	     -7.91266873	     10.73589123	     -1.47877606	      7.31373439	     -4.98804234	    -13.70936445	     -9.62642215	     13.68277052	      6.03496499	      4.69886168	      1.09822055	     12.52032404
      0.12000000	     -8.69862354	     -1.95428119	     -3.92705666	     -0.99289100	      0.88570736	     -0.58649555	     10.04709624	     -0.27913108	      4.49830740	     -7.89249185	     10.72559416	     -1.47376375	      7.34426537	     -4.99816778	    -13.72639703	     -9.59813275	     13.68629994	      6.03933387	      4.70919095	      1.10700919	     12.47560457
      0.13000000	     -8.77141166	     -1.98753926	     -3.87756374	     -0.99303187	      0.88562607	     -0.58665622	     10.10816278	     -0.25523801	      4.44574870	     -7.85584226	     10.67608900	     -1.45706220	      7.44281982	     -5.02687402	    -13.66854096	     -9.60153200	     13.66540383	      6.05463953	      4.76232278	      1.14108387	     12.39072822
      0.14000000	     -8.81008180	     -1.99616552	     -3.84387286	     -0.99313184	      0.88558024	     -0.58682624	     10.13583388	     -0.25923198	      4.43697743	     -7.82667821	     10.66768495	     -1.44585608	      7.49913826	     -5.02538325	    -13.62408917	     -9.60455115	     13.68374644	      6.06410291	      4.78066419	      1.14920107	     12.32938306
      0.15000000	     -8.83895646	     -2.00284639	     -3.80724187	     -0.99316474	      0.88555483	     -0.58704036	     10.14310080	     -0.26962657	      4.43813126	     -7.78742584	     10.65455348	     -1.43813950	      7.53305601	     -5.01537810	    -13.59730961	     -9.58951347	     13.66997495	      6.06882560	      4.79520245	      1.16188396	     12.26909081
      0.16000000	     -8.85783447	     -2.00219853	     -3.76381354	     -0.99314034	      0.88553989	     -0.58728363	     10.13221055	     -0.29130600	      4.46554663	     -7.74504132	     10.64383853	     -1.43262860	      7.55177532	     -4.99348309	    -13.56373002	     -9.57072916	     13.66387148	      6.07245091	      4.80735920	      1.16706745	     12.20628646
      0.17000000	     -8.87330418	     -1.99566192	     -3.72119506	     -0.99308886	      0.88553081	     -0.58754503	     10.10788765	     -0.32195212	      4.49688548	     -7.68456092	     10.63303784	     -1.42773822	      7.56149800	     -4.96265231	    -13.52519349	     -9.54506877	     13.64948431	      6.07555081	      4.81724771	      1.16916923	     12.14236583
      0.18000000	     -8.87309727	     -1.98317060	     -3.67610147	     -0.99300374	      0.88555161	     -0.58781910	     10.05381140	     -0.36226494	      4.51084634	     -7.60047688	     10.60362346	     -1.41980703	      7.54464504	     -4.92060933	    -13.45804401	     -9.50458287	     13.61126836	      6.07693297	      4.81074678	      1.16449748	     12.09463145
      0.19000000	     -8.87812956	     -1.97983312	     -3.65361307	     -0.99292704	      0.88555206	     -0.58803025	     10.03357238	     -0.38381696	      4.54593060	     -7.57002142	     10.60477589	     -1.41685732	      7.53218589	     -4.89788182	    -13.45699805	     -9.47133357	     13.60589573	      6.07695814	      4.80825244	      1.17270167	     12.03826947
      0.20000000	     -8.88386227	     -1.96898333	     -3.62428862	     -0.99282856	      0.88555594	     -0.58823316	      9.99369817	     -0.41506131	      4.57977651	     -7.50237488	     10.60087341	     -1.41205585	      7.51588322	     -4.86588429	    -13.43274824	     -9.42929073	     13.58285513	      6.07932810	      4.81135696	      1.16752704	     11.99592496
      0.21000000	     -8.88948956	     -1.97142423	     -3.61450112	     -0.99278713	      0.88555622	     -0.58838788	      9.99223274	     -0.42465570	      4.58246348	     -7.49802369	     10.59926747	     -1.41172905	      7.51580525	     -4.85743520	    -13.43383498	     -9.42241609	     13.58043005	      6.07963135	      4.80399401	      1.17908291	     11.99598260
      0.22000000	     -8.88714954	     -1.95697867	     -3.58636941	     -0.99266537	      0.88558799	     -0.58854448	      9.93422700	     -0.45807035	      4.58624918	     -7.40986441	     10.56428564	     -1.39880840	      7.47162422	     -4.81960618	    -13.38507334	     -9.34470003	     13.51661627	      6.08665586	      4.80264652	      1.16513454	     11.95312705
      0.23000000	     -8.89403070	     -1.96021634	     -3.57962160	     -0.99260074	      0.88558781	     -0.58863366	      9.93055419	     -0.46174703	      4.57297770	     -7.40017067	     10.56235760	     -1.39604938	      7.46070360	     -4.81490325	    -13.40067796	     -9.31572709	     13.51346287	      6.08692776	      4.80389862	      1.17218270	     11.93561895
      0.24000000	     -8.90501337	     -1.96177396	     -3.57206771	     -0.99253398	      0.88558797	     -0.58870484	      9.92778529	     -0.46609146	      4.54533142	     -7.38172197	     10.55484400	     -1.39278919	      7.45308659	     -4.80886172	    -13.40772883	     -9.28329372	     13.49858837	      6.08943777	      4.81216209	      1.17481686	     11.92632517
